<mxfile host="Electron" modified="2024-12-18T16:59:17.848Z" agent="Mozilla/5.0 (Windows NT 10.0; Win64; x64) AppleWebKit/537.36 (KHTML, like Gecko) draw.io/24.6.4 Chrome/124.0.6367.207 Electron/30.0.6 Safari/537.36" etag="QdWCUzX-LJiU4mrrmLk7" version="24.6.4" type="device">
  <diagram name="Страница — 1" id="3g8LpzaHeM8k9CqPSqDJ">
    <mxGraphModel dx="1616" dy="888" grid="1" gridSize="10" guides="1" tooltips="1" connect="1" arrows="1" fold="1" page="1" pageScale="1" pageWidth="827" pageHeight="1169" math="0" shadow="0">
      <root>
        <mxCell id="0" />
        <mxCell id="1" parent="0" />
        <mxCell id="DHNYtzYkdaXYxELF3zS7-44" style="edgeStyle=orthogonalEdgeStyle;rounded=0;orthogonalLoop=1;jettySize=auto;html=1;exitX=0.25;exitY=0;exitDx=0;exitDy=0;entryX=1;entryY=0.5;entryDx=0;entryDy=0;" edge="1" parent="1" source="DHNYtzYkdaXYxELF3zS7-1" target="DHNYtzYkdaXYxELF3zS7-20">
          <mxGeometry relative="1" as="geometry" />
        </mxCell>
        <mxCell id="DHNYtzYkdaXYxELF3zS7-45" style="edgeStyle=orthogonalEdgeStyle;rounded=0;orthogonalLoop=1;jettySize=auto;html=1;exitX=0.75;exitY=0;exitDx=0;exitDy=0;entryX=0;entryY=0.5;entryDx=0;entryDy=0;" edge="1" parent="1" source="DHNYtzYkdaXYxELF3zS7-1" target="DHNYtzYkdaXYxELF3zS7-19">
          <mxGeometry relative="1" as="geometry" />
        </mxCell>
        <mxCell id="DHNYtzYkdaXYxELF3zS7-53" style="edgeStyle=orthogonalEdgeStyle;rounded=0;orthogonalLoop=1;jettySize=auto;html=1;exitX=0;exitY=0.75;exitDx=0;exitDy=0;entryX=0.75;entryY=0;entryDx=0;entryDy=0;" edge="1" parent="1" source="DHNYtzYkdaXYxELF3zS7-1" target="DHNYtzYkdaXYxELF3zS7-12">
          <mxGeometry relative="1" as="geometry" />
        </mxCell>
        <mxCell id="DHNYtzYkdaXYxELF3zS7-1" value="&lt;font style=&quot;font-size: 24px;&quot;&gt;Безопасность данных&lt;/font&gt;" style="rounded=0;whiteSpace=wrap;html=1;" vertex="1" parent="1">
          <mxGeometry x="1050" y="510" width="329" height="220" as="geometry" />
        </mxCell>
        <mxCell id="DHNYtzYkdaXYxELF3zS7-12" value="Секретные данные&lt;br&gt;&lt;span style=&quot;font-size: 8px;&quot;&gt;Интеграции с госорганами, внутренний API партнеров, финансовые данные компании, пользовательские транзакции&lt;/span&gt;&lt;br&gt;&lt;div&gt;&lt;br&gt;&lt;/div&gt;" style="rounded=0;whiteSpace=wrap;html=1;" vertex="1" parent="1">
          <mxGeometry x="695" y="720" width="160" height="80" as="geometry" />
        </mxCell>
        <mxCell id="DHNYtzYkdaXYxELF3zS7-19" value="Публичные данные&lt;br&gt;&lt;span style=&quot;font-size: 8px;&quot;&gt;Общедоступные сведения о компании, описание серверса, рекламные материалы&lt;/span&gt;&lt;br&gt;&lt;div&gt;&lt;br&gt;&lt;/div&gt;" style="rounded=0;whiteSpace=wrap;html=1;" vertex="1" parent="1">
          <mxGeometry x="1687" y="310" width="160" height="80" as="geometry" />
        </mxCell>
        <mxCell id="DHNYtzYkdaXYxELF3zS7-20" value="Конфиденциальные данные&lt;br&gt;&lt;span style=&quot;font-size: 8px;&quot;&gt;Персональные данные клиентов, расширенные данные о собственности&lt;/span&gt;&lt;br&gt;&lt;div&gt;&lt;br&gt;&lt;/div&gt;" style="rounded=0;whiteSpace=wrap;html=1;" vertex="1" parent="1">
          <mxGeometry x="675" y="325" width="160" height="90" as="geometry" />
        </mxCell>
        <mxCell id="DHNYtzYkdaXYxELF3zS7-21" value="Внутренние данные&lt;br&gt;&lt;span style=&quot;font-size: 8px;&quot;&gt;Метрики сервисов, неперсонализированные данные клиентов, внутренние инструкции для сотрудников&lt;/span&gt;&lt;br&gt;&lt;div&gt;&lt;br&gt;&lt;/div&gt;" style="rounded=0;whiteSpace=wrap;html=1;" vertex="1" parent="1">
          <mxGeometry x="1694" y="720" width="160" height="90" as="geometry" />
        </mxCell>
        <mxCell id="DHNYtzYkdaXYxELF3zS7-23" value="Утечка данных&lt;br&gt;&lt;span style=&quot;font-size: 8px;&quot;&gt;&lt;b&gt;Риск: критический&lt;br&gt;&lt;/b&gt;&lt;/span&gt;&lt;br&gt;&lt;div&gt;&lt;font style=&quot;font-size: 8px;&quot;&gt;Потенциальный срыв сделок, финансовый ущерб компании&lt;/font&gt;&lt;/div&gt;" style="rounded=1;whiteSpace=wrap;html=1;" vertex="1" parent="1">
          <mxGeometry x="530" y="820" width="150" height="90" as="geometry" />
        </mxCell>
        <mxCell id="DHNYtzYkdaXYxELF3zS7-24" value="Искажение данных&lt;br&gt;&lt;span style=&quot;font-size: 8px;&quot;&gt;&lt;b&gt;Риск: критический&lt;br&gt;&lt;/b&gt;&lt;/span&gt;&lt;br&gt;&lt;div&gt;&lt;span style=&quot;font-size: 8px;&quot;&gt;Ухудшение или разрыв отношений с госорганами и партнерами&lt;/span&gt;&lt;/div&gt;" style="rounded=1;whiteSpace=wrap;html=1;" vertex="1" parent="1">
          <mxGeometry x="700" y="820" width="150" height="90" as="geometry" />
        </mxCell>
        <mxCell id="DHNYtzYkdaXYxELF3zS7-25" value="Потеря данных&lt;br&gt;&lt;span style=&quot;font-size: 8px;&quot;&gt;&lt;b&gt;Риск: критический&lt;br&gt;&lt;/b&gt;&lt;/span&gt;&lt;br&gt;&lt;div&gt;&lt;span style=&quot;font-size: 8px;&quot;&gt;Невозможность провести сделки и бухгалтерские операции&lt;/span&gt;&lt;/div&gt;" style="rounded=1;whiteSpace=wrap;html=1;" vertex="1" parent="1">
          <mxGeometry x="870" y="820" width="150" height="90" as="geometry" />
        </mxCell>
        <mxCell id="DHNYtzYkdaXYxELF3zS7-26" value="Обесценивание данных&lt;br&gt;&lt;span style=&quot;font-size: 8px;&quot;&gt;&lt;b&gt;Риск: Значительный&lt;br&gt;&lt;/b&gt;&lt;/span&gt;&lt;br&gt;&lt;div&gt;&lt;span style=&quot;font-size: 8px; background-color: initial;&quot;&gt;Потеря ключей доступа, с&lt;/span&gt;&lt;span style=&quot;font-size: 8px;&quot;&gt;бой в работе партнерских интеграций&amp;nbsp;&lt;/span&gt;&lt;/div&gt;" style="rounded=1;whiteSpace=wrap;html=1;" vertex="1" parent="1">
          <mxGeometry x="700" y="930" width="150" height="90" as="geometry" />
        </mxCell>
        <mxCell id="DHNYtzYkdaXYxELF3zS7-27" value="&lt;h1 style=&quot;margin-top: 0px;&quot;&gt;&lt;span style=&quot;font-weight: normal;&quot;&gt;&lt;font style=&quot;font-size: 18px;&quot;&gt;Оценка&lt;/font&gt;:&lt;/span&gt;&lt;br&gt;&lt;font style=&quot;font-size: 14px;&quot;&gt;Критическая&lt;/font&gt;&lt;/h1&gt;&lt;p&gt;Эти проблемы ведут к значительным финансовым и репутационным потерям для бизнеса&lt;/p&gt;" style="text;html=1;whiteSpace=wrap;overflow=hidden;rounded=0;" vertex="1" parent="1">
          <mxGeometry x="470" y="910" width="220" height="130" as="geometry" />
        </mxCell>
        <mxCell id="DHNYtzYkdaXYxELF3zS7-28" value="Утечка данных&lt;br&gt;&lt;span style=&quot;font-size: 8px;&quot;&gt;&lt;b&gt;Риск: критический&lt;br&gt;&lt;/b&gt;&lt;/span&gt;&lt;br&gt;&lt;div&gt;&lt;span style=&quot;font-size: 8px;&quot;&gt;Угроза приватности пользователей&amp;nbsp; и нарушения законодательства&lt;/span&gt;&lt;/div&gt;" style="rounded=1;whiteSpace=wrap;html=1;" vertex="1" parent="1">
          <mxGeometry x="510" y="435" width="150" height="90" as="geometry" />
        </mxCell>
        <mxCell id="DHNYtzYkdaXYxELF3zS7-29" value="Искажение данных&lt;br&gt;&lt;span style=&quot;font-size: 8px;&quot;&gt;&lt;b&gt;Риск: Значительный&lt;br&gt;&lt;/b&gt;&lt;/span&gt;&lt;br&gt;&lt;div&gt;&lt;span style=&quot;font-size: 8px;&quot;&gt;Ущерб доверия клиентов&lt;/span&gt;&lt;/div&gt;" style="rounded=1;whiteSpace=wrap;html=1;" vertex="1" parent="1">
          <mxGeometry x="680" y="435" width="150" height="90" as="geometry" />
        </mxCell>
        <mxCell id="DHNYtzYkdaXYxELF3zS7-30" value="Потеря данных&lt;br&gt;&lt;span style=&quot;font-size: 8px;&quot;&gt;&lt;b&gt;Риск: критический&lt;br&gt;&lt;/b&gt;&lt;/span&gt;&lt;br&gt;&lt;div&gt;&lt;span style=&quot;font-size: 8px;&quot;&gt;Юридические проблемы из-за потери данных&lt;/span&gt;&lt;/div&gt;" style="rounded=1;whiteSpace=wrap;html=1;" vertex="1" parent="1">
          <mxGeometry x="850" y="435" width="150" height="90" as="geometry" />
        </mxCell>
        <mxCell id="DHNYtzYkdaXYxELF3zS7-31" value="Обесценивание данных&lt;br&gt;&lt;span style=&quot;font-size: 8px;&quot;&gt;&lt;b&gt;Риск: Значительный&lt;br&gt;&lt;/b&gt;&lt;/span&gt;&lt;br&gt;&lt;div&gt;&lt;span style=&quot;font-size: 8px;&quot;&gt;Ошибки во время сделок, снижение уровня сервиса, проблемы в аналитике&lt;/span&gt;&lt;/div&gt;" style="rounded=1;whiteSpace=wrap;html=1;" vertex="1" parent="1">
          <mxGeometry x="680" y="545" width="150" height="90" as="geometry" />
        </mxCell>
        <mxCell id="DHNYtzYkdaXYxELF3zS7-32" value="&lt;h1 style=&quot;margin-top: 0px;&quot;&gt;&lt;span style=&quot;font-weight: normal;&quot;&gt;&lt;font style=&quot;font-size: 18px;&quot;&gt;Оценка&lt;/font&gt;:&lt;/span&gt;&lt;br&gt;&lt;font style=&quot;font-size: 14px;&quot;&gt;Критическая-значительная&lt;br&gt;&lt;/font&gt;&lt;/h1&gt;&lt;div&gt;&lt;font style=&quot;font-size: 14px;&quot;&gt;&lt;br&gt;&lt;/font&gt;&lt;/div&gt;&lt;div&gt;&lt;span style=&quot;font-size: 14px;&quot;&gt;Данные проблемы затрагивают пользователей и удобство системы для них&lt;/span&gt;&lt;/div&gt;" style="text;html=1;whiteSpace=wrap;overflow=hidden;rounded=0;" vertex="1" parent="1">
          <mxGeometry x="450" y="525" width="220" height="150" as="geometry" />
        </mxCell>
        <mxCell id="DHNYtzYkdaXYxELF3zS7-33" value="Утечка данных&lt;br&gt;&lt;span style=&quot;font-size: 8px;&quot;&gt;&lt;b&gt;Риск: Значительный&lt;br&gt;&lt;/b&gt;&lt;/span&gt;&lt;br&gt;&lt;div&gt;&lt;span style=&quot;font-size: 8px;&quot;&gt;Угроза разглашение стратегических планов компании&lt;/span&gt;&lt;/div&gt;" style="rounded=1;whiteSpace=wrap;html=1;" vertex="1" parent="1">
          <mxGeometry x="1529" y="850" width="150" height="90" as="geometry" />
        </mxCell>
        <mxCell id="DHNYtzYkdaXYxELF3zS7-34" value="Искажение данных&lt;br&gt;&lt;span style=&quot;font-size: 8px;&quot;&gt;&lt;b&gt;Риск: Значительный&lt;br&gt;&lt;/b&gt;&lt;/span&gt;&lt;br&gt;&lt;div&gt;&lt;span style=&quot;font-size: 8px;&quot;&gt;Неверные данные ведут к угрозе неправильных бизнес решений&lt;/span&gt;&lt;/div&gt;" style="rounded=1;whiteSpace=wrap;html=1;" vertex="1" parent="1">
          <mxGeometry x="1699" y="850" width="150" height="90" as="geometry" />
        </mxCell>
        <mxCell id="DHNYtzYkdaXYxELF3zS7-35" value="Потеря данных&lt;br&gt;&lt;span style=&quot;font-size: 8px;&quot;&gt;&lt;b&gt;Риск: Значительный&lt;br&gt;&lt;/b&gt;&lt;/span&gt;&lt;br&gt;&lt;div&gt;&lt;span style=&quot;font-size: 8px;&quot;&gt;Угроза остановки внутренних процесов&lt;/span&gt;&lt;br&gt;&lt;/div&gt;" style="rounded=1;whiteSpace=wrap;html=1;" vertex="1" parent="1">
          <mxGeometry x="1869" y="850" width="150" height="90" as="geometry" />
        </mxCell>
        <mxCell id="DHNYtzYkdaXYxELF3zS7-36" value="Обесценивание данных&lt;br&gt;&lt;span style=&quot;font-size: 8px;&quot;&gt;&lt;b&gt;Риск: Незначительный&lt;br&gt;&lt;/b&gt;&lt;/span&gt;&lt;br&gt;&lt;div&gt;&lt;span style=&quot;font-size: 8px;&quot;&gt;Внутренние данные устаревают медленно для создания проблем&lt;/span&gt;&lt;/div&gt;" style="rounded=1;whiteSpace=wrap;html=1;" vertex="1" parent="1">
          <mxGeometry x="1699" y="960" width="150" height="90" as="geometry" />
        </mxCell>
        <mxCell id="DHNYtzYkdaXYxELF3zS7-37" value="&lt;h1 style=&quot;margin-top: 0px;&quot;&gt;&lt;span style=&quot;font-weight: normal;&quot;&gt;&lt;font style=&quot;font-size: 18px;&quot;&gt;Оценка&lt;/font&gt;:&lt;span style=&quot;font-size: 14px;&quot;&gt;&lt;br&gt;&lt;/span&gt;&lt;/span&gt;&lt;span style=&quot;font-size: 14px;&quot;&gt;Значительная&lt;/span&gt;&lt;/h1&gt;&lt;div&gt;&lt;span style=&quot;font-size: 14px;&quot;&gt;Эти проблема затрагивают внутреннюю работу компании и ее стратегическое планировние&lt;/span&gt;&lt;/div&gt;" style="text;html=1;whiteSpace=wrap;overflow=hidden;rounded=0;" vertex="1" parent="1">
          <mxGeometry x="1480" y="930" width="220" height="150" as="geometry" />
        </mxCell>
        <mxCell id="DHNYtzYkdaXYxELF3zS7-39" value="Утечка данных&lt;br&gt;&lt;span style=&quot;font-size: 8px;&quot;&gt;&lt;b&gt;Риск: Незначительный&lt;br&gt;&lt;/b&gt;&lt;/span&gt;&lt;br&gt;&lt;div&gt;&lt;span style=&quot;font-size: 8px;&quot;&gt;Эти данные итак в публичном доступе&lt;/span&gt;&lt;/div&gt;" style="rounded=1;whiteSpace=wrap;html=1;" vertex="1" parent="1">
          <mxGeometry x="1529" y="430" width="150" height="90" as="geometry" />
        </mxCell>
        <mxCell id="DHNYtzYkdaXYxELF3zS7-40" value="Искажение данных&lt;br&gt;&lt;span style=&quot;font-size: 8px;&quot;&gt;&lt;b&gt;Риск: Значительный&lt;br&gt;&lt;/b&gt;&lt;/span&gt;&lt;br&gt;&lt;div&gt;&lt;span style=&quot;font-size: 8px;&quot;&gt;Может повлиять на репутацию компании&lt;/span&gt;&lt;/div&gt;" style="rounded=1;whiteSpace=wrap;html=1;" vertex="1" parent="1">
          <mxGeometry x="1699" y="430" width="150" height="90" as="geometry" />
        </mxCell>
        <mxCell id="DHNYtzYkdaXYxELF3zS7-41" value="Потеря данных&lt;br&gt;&lt;span style=&quot;font-size: 8px;&quot;&gt;&lt;b&gt;Риск: Незначительный&lt;br&gt;&lt;/b&gt;&lt;/span&gt;&lt;br&gt;&lt;div&gt;&lt;span style=&quot;font-size: 8px;&quot;&gt;Эти данные легко восстановить&lt;/span&gt;&lt;br&gt;&lt;/div&gt;" style="rounded=1;whiteSpace=wrap;html=1;" vertex="1" parent="1">
          <mxGeometry x="1869" y="430" width="150" height="90" as="geometry" />
        </mxCell>
        <mxCell id="DHNYtzYkdaXYxELF3zS7-42" value="Обесценивание данных&lt;br&gt;&lt;span style=&quot;font-size: 8px;&quot;&gt;&lt;b&gt;Риск: Незначительный&lt;br&gt;&lt;/b&gt;&lt;/span&gt;&lt;br&gt;&lt;div&gt;&lt;span style=&quot;font-size: 8px;&quot;&gt;Возможно устаревание маркетинговой информации&lt;/span&gt;&lt;/div&gt;" style="rounded=1;whiteSpace=wrap;html=1;" vertex="1" parent="1">
          <mxGeometry x="1699" y="540" width="150" height="90" as="geometry" />
        </mxCell>
        <mxCell id="DHNYtzYkdaXYxELF3zS7-43" value="&lt;h1 style=&quot;margin-top: 0px;&quot;&gt;&lt;span style=&quot;font-weight: normal;&quot;&gt;&lt;font style=&quot;font-size: 18px;&quot;&gt;Оценка&lt;/font&gt;:&lt;span style=&quot;font-size: 14px;&quot;&gt;&lt;br&gt;&lt;/span&gt;&lt;/span&gt;&lt;span style=&quot;font-size: 14px;&quot;&gt;Незначитальная&lt;/span&gt;&lt;/h1&gt;&lt;div&gt;&lt;span style=&quot;font-size: 14px;&quot;&gt;Эти проблемы затрагивают публичный имидж компании, но в большинстве своем незначительны&lt;/span&gt;&lt;/div&gt;" style="text;html=1;whiteSpace=wrap;overflow=hidden;rounded=0;" vertex="1" parent="1">
          <mxGeometry x="1480" y="510" width="220" height="150" as="geometry" />
        </mxCell>
        <mxCell id="DHNYtzYkdaXYxELF3zS7-47" style="edgeStyle=orthogonalEdgeStyle;rounded=0;orthogonalLoop=1;jettySize=auto;html=1;exitX=1;exitY=0.75;exitDx=0;exitDy=0;entryX=0.012;entryY=0.168;entryDx=0;entryDy=0;entryPerimeter=0;" edge="1" parent="1" source="DHNYtzYkdaXYxELF3zS7-1" target="DHNYtzYkdaXYxELF3zS7-21">
          <mxGeometry relative="1" as="geometry" />
        </mxCell>
      </root>
    </mxGraphModel>
  </diagram>
</mxfile>
